%TF.GenerationSoftware,Altium Limited,Altium Designer,24.7.2 (38)*%
G04 Layer_Color=32896*
%FSLAX45Y45*%
%MOMM*%
%TF.SameCoordinates,CC96ED50-5278-442E-815C-D6E1CD6F0417*%
%TF.FilePolarity,Positive*%
%TF.FileFunction,Legend,Bot*%
%TF.Part,Single*%
G01*
G75*
%TA.AperFunction,NonConductor*%
%ADD38C,0.12700*%
G36*
X3228913Y4387709D02*
X3229930Y4386230D01*
X3231132Y4384751D01*
X3232241Y4383456D01*
X3233351Y4382347D01*
X3234183Y4381422D01*
X3234553Y4381145D01*
X3234830Y4380868D01*
X3234923Y4380775D01*
X3235015Y4380683D01*
X3236957Y4379111D01*
X3238898Y4377632D01*
X3240747Y4376337D01*
X3242597Y4375320D01*
X3244168Y4374396D01*
X3244815Y4374026D01*
X3245370Y4373748D01*
X3245832Y4373471D01*
X3246202Y4373379D01*
X3246387Y4373194D01*
X3246480D01*
Y4365612D01*
X3245093Y4366167D01*
X3243706Y4366814D01*
X3242319Y4367461D01*
X3241025Y4368109D01*
X3239915Y4368663D01*
X3238991Y4369126D01*
X3238436Y4369495D01*
X3238344Y4369588D01*
X3238251D01*
X3236587Y4370605D01*
X3235108Y4371622D01*
X3233813Y4372546D01*
X3232796Y4373379D01*
X3231872Y4374026D01*
X3231317Y4374581D01*
X3230855Y4374950D01*
X3230762Y4375043D01*
Y4325024D01*
X3222903D01*
Y4389281D01*
X3227988D01*
X3228913Y4387709D01*
D02*
G37*
G36*
X3313695Y4352021D02*
Y4350172D01*
X3313603Y4348415D01*
X3313510Y4346751D01*
X3313325Y4345180D01*
X3313140Y4343793D01*
X3312956Y4342498D01*
X3312678Y4341296D01*
X3312493Y4340187D01*
X3312308Y4339170D01*
X3312031Y4338338D01*
X3311846Y4337598D01*
X3311661Y4337043D01*
X3311476Y4336581D01*
X3311384Y4336211D01*
X3311291Y4336026D01*
Y4335934D01*
X3310274Y4333900D01*
X3308980Y4332051D01*
X3307686Y4330571D01*
X3306299Y4329277D01*
X3305097Y4328260D01*
X3304080Y4327520D01*
X3303710Y4327336D01*
X3303433Y4327151D01*
X3303248Y4326966D01*
X3303155D01*
X3300844Y4325949D01*
X3298440Y4325209D01*
X3295944Y4324654D01*
X3293632Y4324284D01*
X3292615Y4324192D01*
X3291598Y4324100D01*
X3290674Y4324007D01*
X3289934D01*
X3289287Y4323915D01*
X3288455D01*
X3285126Y4324100D01*
X3283647Y4324284D01*
X3282260Y4324469D01*
X3280873Y4324747D01*
X3279671Y4325024D01*
X3278562Y4325301D01*
X3277545Y4325671D01*
X3276620Y4326041D01*
X3275881Y4326318D01*
X3275141Y4326596D01*
X3274586Y4326873D01*
X3274124Y4327151D01*
X3273847Y4327243D01*
X3273662Y4327428D01*
X3273569D01*
X3271535Y4328815D01*
X3269871Y4330387D01*
X3268577Y4331866D01*
X3267467Y4333345D01*
X3266635Y4334640D01*
X3266080Y4335657D01*
X3265895Y4336026D01*
X3265711Y4336304D01*
X3265618Y4336489D01*
Y4336581D01*
X3265248Y4337691D01*
X3264878Y4338893D01*
X3264324Y4341389D01*
X3263954Y4343978D01*
X3263676Y4346474D01*
X3263584Y4347583D01*
X3263492Y4348693D01*
Y4349617D01*
X3263399Y4350450D01*
Y4351097D01*
Y4351559D01*
Y4351929D01*
Y4352021D01*
Y4389004D01*
X3271905D01*
Y4352021D01*
Y4349895D01*
X3272090Y4347861D01*
X3272275Y4346104D01*
X3272552Y4344440D01*
X3272830Y4342961D01*
X3273199Y4341574D01*
X3273477Y4340372D01*
X3273847Y4339355D01*
X3274216Y4338523D01*
X3274586Y4337691D01*
X3274956Y4337136D01*
X3275233Y4336581D01*
X3275511Y4336211D01*
X3275696Y4335934D01*
X3275788Y4335841D01*
X3275881Y4335749D01*
X3276713Y4335009D01*
X3277637Y4334362D01*
X3279671Y4333345D01*
X3281798Y4332606D01*
X3284017Y4332143D01*
X3286051Y4331773D01*
X3286883Y4331681D01*
X3287715D01*
X3288270Y4331588D01*
X3289194D01*
X3291136Y4331681D01*
X3292893Y4331958D01*
X3294557Y4332236D01*
X3295851Y4332698D01*
X3296961Y4333068D01*
X3297793Y4333345D01*
X3298255Y4333623D01*
X3298440Y4333715D01*
X3299734Y4334547D01*
X3300844Y4335564D01*
X3301768Y4336581D01*
X3302416Y4337506D01*
X3302970Y4338430D01*
X3303433Y4339077D01*
X3303617Y4339540D01*
X3303710Y4339725D01*
X3303987Y4340557D01*
X3304172Y4341389D01*
X3304542Y4343330D01*
X3304819Y4345364D01*
X3305004Y4347398D01*
X3305097Y4349155D01*
Y4349987D01*
X3305189Y4350634D01*
Y4351189D01*
Y4351651D01*
Y4351929D01*
Y4352021D01*
Y4389004D01*
X3313695D01*
Y4352021D01*
D02*
G37*
G36*
X3389302Y5124700D02*
X3391798Y5124238D01*
X3393925Y5123499D01*
X3395774Y5122759D01*
X3396606Y5122297D01*
X3397253Y5121927D01*
X3397900Y5121557D01*
X3398363Y5121187D01*
X3398733Y5120910D01*
X3399010Y5120725D01*
X3399195Y5120632D01*
X3399287Y5120540D01*
X3401044Y5118783D01*
X3402431Y5116842D01*
X3403540Y5114808D01*
X3404465Y5112774D01*
X3405020Y5111017D01*
X3405297Y5110277D01*
X3405482Y5109630D01*
X3405574Y5109075D01*
X3405667Y5108706D01*
X3405759Y5108428D01*
Y5108336D01*
X3397900Y5106949D01*
X3397531Y5108983D01*
X3396976Y5110740D01*
X3396329Y5112219D01*
X3395682Y5113421D01*
X3395034Y5114345D01*
X3394480Y5114993D01*
X3394110Y5115455D01*
X3394017Y5115547D01*
X3392815Y5116472D01*
X3391521Y5117212D01*
X3390319Y5117674D01*
X3389117Y5118044D01*
X3388008Y5118229D01*
X3387176Y5118413D01*
X3386436D01*
X3384772Y5118321D01*
X3383292Y5117951D01*
X3381998Y5117489D01*
X3380889Y5117027D01*
X3380056Y5116472D01*
X3379409Y5116010D01*
X3378947Y5115640D01*
X3378855Y5115547D01*
X3377838Y5114438D01*
X3377098Y5113236D01*
X3376636Y5112034D01*
X3376266Y5110924D01*
X3376081Y5109907D01*
X3375896Y5109168D01*
Y5108613D01*
Y5108521D01*
Y5108428D01*
Y5107411D01*
X3376081Y5106487D01*
X3376543Y5104915D01*
X3377190Y5103528D01*
X3377930Y5102326D01*
X3378670Y5101494D01*
X3379317Y5100847D01*
X3379779Y5100477D01*
X3379872Y5100385D01*
X3379964D01*
X3381536Y5099552D01*
X3383015Y5098905D01*
X3384587Y5098443D01*
X3385974Y5098166D01*
X3387176Y5097981D01*
X3388193Y5097796D01*
X3389395D01*
X3389764Y5097888D01*
X3390227D01*
X3391151Y5090954D01*
X3389949Y5091231D01*
X3388840Y5091416D01*
X3387915Y5091601D01*
X3387083Y5091694D01*
X3386436Y5091786D01*
X3385604D01*
X3383662Y5091601D01*
X3381906Y5091231D01*
X3380334Y5090677D01*
X3379039Y5090029D01*
X3378022Y5089382D01*
X3377283Y5088828D01*
X3376821Y5088458D01*
X3376636Y5088273D01*
X3375434Y5086886D01*
X3374509Y5085407D01*
X3373862Y5083927D01*
X3373492Y5082448D01*
X3373215Y5081246D01*
X3373122Y5080229D01*
X3373030Y5079859D01*
Y5079582D01*
Y5079397D01*
Y5079305D01*
X3373215Y5077271D01*
X3373677Y5075421D01*
X3374232Y5073850D01*
X3374971Y5072463D01*
X3375711Y5071353D01*
X3376266Y5070521D01*
X3376728Y5069966D01*
X3376913Y5069782D01*
X3378392Y5068487D01*
X3379964Y5067563D01*
X3381536Y5066915D01*
X3383015Y5066453D01*
X3384309Y5066176D01*
X3385326Y5066083D01*
X3385696Y5065991D01*
X3386251D01*
X3387915Y5066083D01*
X3389487Y5066453D01*
X3390874Y5066915D01*
X3391983Y5067470D01*
X3392908Y5067932D01*
X3393648Y5068395D01*
X3394017Y5068765D01*
X3394202Y5068857D01*
X3395312Y5070151D01*
X3396236Y5071631D01*
X3397068Y5073202D01*
X3397716Y5074867D01*
X3398178Y5076253D01*
X3398363Y5076901D01*
X3398455Y5077455D01*
X3398548Y5077918D01*
X3398640Y5078288D01*
X3398733Y5078472D01*
Y5078565D01*
X3406591Y5077548D01*
X3406406Y5076069D01*
X3406129Y5074682D01*
X3405297Y5072093D01*
X3404280Y5069874D01*
X3403725Y5068949D01*
X3403170Y5068025D01*
X3402616Y5067193D01*
X3402061Y5066546D01*
X3401599Y5065898D01*
X3401136Y5065436D01*
X3400859Y5065066D01*
X3400582Y5064789D01*
X3400397Y5064604D01*
X3400304Y5064512D01*
X3399195Y5063679D01*
X3398085Y5062847D01*
X3396976Y5062200D01*
X3395774Y5061645D01*
X3393463Y5060721D01*
X3391244Y5060166D01*
X3390227Y5059981D01*
X3389302Y5059796D01*
X3388470Y5059704D01*
X3387730Y5059611D01*
X3387176Y5059519D01*
X3386343D01*
X3384587Y5059611D01*
X3383015Y5059796D01*
X3381443Y5060074D01*
X3379964Y5060444D01*
X3378577Y5060906D01*
X3377375Y5061368D01*
X3376173Y5061923D01*
X3375156Y5062478D01*
X3374139Y5062940D01*
X3373307Y5063495D01*
X3372568Y5063957D01*
X3372013Y5064419D01*
X3371551Y5064789D01*
X3371181Y5065066D01*
X3370996Y5065251D01*
X3370903Y5065344D01*
X3369794Y5066453D01*
X3368869Y5067655D01*
X3368037Y5068857D01*
X3367298Y5070059D01*
X3366743Y5071168D01*
X3366188Y5072370D01*
X3365448Y5074589D01*
X3365264Y5075606D01*
X3365079Y5076531D01*
X3364894Y5077363D01*
X3364801Y5078103D01*
X3364709Y5078657D01*
Y5079120D01*
Y5079397D01*
Y5079489D01*
X3364801Y5081708D01*
X3365171Y5083742D01*
X3365726Y5085499D01*
X3366281Y5086978D01*
X3366835Y5088180D01*
X3367390Y5089105D01*
X3367760Y5089660D01*
X3367852Y5089845D01*
X3369147Y5091231D01*
X3370534Y5092433D01*
X3372013Y5093358D01*
X3373492Y5094098D01*
X3374786Y5094652D01*
X3375804Y5095022D01*
X3376173Y5095115D01*
X3376451Y5095207D01*
X3376636Y5095299D01*
X3376728D01*
X3375156Y5096132D01*
X3373862Y5096964D01*
X3372752Y5097888D01*
X3371828Y5098720D01*
X3371088Y5099460D01*
X3370534Y5100107D01*
X3370256Y5100477D01*
X3370164Y5100662D01*
X3369424Y5101956D01*
X3368869Y5103251D01*
X3368407Y5104545D01*
X3368130Y5105747D01*
X3367945Y5106764D01*
X3367852Y5107504D01*
Y5108058D01*
Y5108243D01*
X3367945Y5109815D01*
X3368222Y5111387D01*
X3368592Y5112774D01*
X3369054Y5113976D01*
X3369517Y5114993D01*
X3369886Y5115825D01*
X3370164Y5116287D01*
X3370256Y5116472D01*
X3371181Y5117859D01*
X3372290Y5119061D01*
X3373400Y5120078D01*
X3374509Y5121002D01*
X3375434Y5121649D01*
X3376266Y5122204D01*
X3376821Y5122481D01*
X3376913Y5122574D01*
X3377005D01*
X3378670Y5123314D01*
X3380334Y5123868D01*
X3381998Y5124331D01*
X3383477Y5124608D01*
X3384679Y5124793D01*
X3385696Y5124885D01*
X3388008D01*
X3389302Y5124700D01*
D02*
G37*
G36*
X3467890Y5087626D02*
Y5085776D01*
X3467797Y5084020D01*
X3467705Y5082356D01*
X3467520Y5080784D01*
X3467335Y5079397D01*
X3467150Y5078103D01*
X3466873Y5076901D01*
X3466688Y5075791D01*
X3466503Y5074774D01*
X3466225Y5073942D01*
X3466041Y5073202D01*
X3465856Y5072648D01*
X3465671Y5072185D01*
X3465578Y5071816D01*
X3465486Y5071631D01*
Y5071538D01*
X3464469Y5069504D01*
X3463174Y5067655D01*
X3461880Y5066176D01*
X3460493Y5064881D01*
X3459291Y5063864D01*
X3458274Y5063125D01*
X3457904Y5062940D01*
X3457627Y5062755D01*
X3457442Y5062570D01*
X3457350D01*
X3455038Y5061553D01*
X3452634Y5060813D01*
X3450138Y5060259D01*
X3447827Y5059889D01*
X3446810Y5059796D01*
X3445793Y5059704D01*
X3444868Y5059611D01*
X3444128D01*
X3443481Y5059519D01*
X3442649D01*
X3439321Y5059704D01*
X3437841Y5059889D01*
X3436455Y5060074D01*
X3435068Y5060351D01*
X3433866Y5060628D01*
X3432756Y5060906D01*
X3431739Y5061276D01*
X3430815Y5061645D01*
X3430075Y5061923D01*
X3429336Y5062200D01*
X3428781Y5062478D01*
X3428319Y5062755D01*
X3428041Y5062847D01*
X3427856Y5063032D01*
X3427764D01*
X3425730Y5064419D01*
X3424066Y5065991D01*
X3422771Y5067470D01*
X3421662Y5068949D01*
X3420830Y5070244D01*
X3420275Y5071261D01*
X3420090Y5071631D01*
X3419905Y5071908D01*
X3419813Y5072093D01*
Y5072185D01*
X3419443Y5073295D01*
X3419073Y5074497D01*
X3418518Y5076993D01*
X3418148Y5079582D01*
X3417871Y5082078D01*
X3417779Y5083188D01*
X3417686Y5084297D01*
Y5085222D01*
X3417594Y5086054D01*
Y5086701D01*
Y5087163D01*
Y5087533D01*
Y5087626D01*
Y5124608D01*
X3426100D01*
Y5087626D01*
Y5085499D01*
X3426284Y5083465D01*
X3426469Y5081708D01*
X3426747Y5080044D01*
X3427024Y5078565D01*
X3427394Y5077178D01*
X3427671Y5075976D01*
X3428041Y5074959D01*
X3428411Y5074127D01*
X3428781Y5073295D01*
X3429151Y5072740D01*
X3429428Y5072185D01*
X3429705Y5071816D01*
X3429890Y5071538D01*
X3429983Y5071446D01*
X3430075Y5071353D01*
X3430907Y5070614D01*
X3431832Y5069966D01*
X3433866Y5068949D01*
X3435992Y5068210D01*
X3438211Y5067748D01*
X3440245Y5067378D01*
X3441077Y5067285D01*
X3441910D01*
X3442464Y5067193D01*
X3443389D01*
X3445330Y5067285D01*
X3447087Y5067563D01*
X3448751Y5067840D01*
X3450046Y5068302D01*
X3451155Y5068672D01*
X3451987Y5068949D01*
X3452450Y5069227D01*
X3452634Y5069319D01*
X3453929Y5070151D01*
X3455038Y5071168D01*
X3455963Y5072185D01*
X3456610Y5073110D01*
X3457165Y5074035D01*
X3457627Y5074682D01*
X3457812Y5075144D01*
X3457904Y5075329D01*
X3458182Y5076161D01*
X3458367Y5076993D01*
X3458737Y5078935D01*
X3459014Y5080969D01*
X3459199Y5083003D01*
X3459291Y5084759D01*
Y5085592D01*
X3459384Y5086239D01*
Y5086793D01*
Y5087256D01*
Y5087533D01*
Y5087626D01*
Y5124608D01*
X3467890D01*
Y5087626D01*
D02*
G37*
G36*
X4724753Y4469748D02*
X4726325Y4469656D01*
X4727804Y4469379D01*
X4729191Y4469101D01*
X4730485Y4468731D01*
X4731687Y4468362D01*
X4732796Y4467899D01*
X4733813Y4467437D01*
X4734738Y4466975D01*
X4735478Y4466513D01*
X4736125Y4466143D01*
X4736680Y4465773D01*
X4737142Y4465496D01*
X4737419Y4465218D01*
X4737604Y4465126D01*
X4737697Y4465033D01*
X4738621Y4464109D01*
X4739453Y4463092D01*
X4740285Y4461982D01*
X4740933Y4460873D01*
X4742042Y4458654D01*
X4742782Y4456435D01*
X4743059Y4455418D01*
X4743336Y4454401D01*
X4743521Y4453569D01*
X4743706Y4452829D01*
X4743799Y4452182D01*
Y4451720D01*
X4743891Y4451442D01*
Y4451350D01*
X4735848Y4450518D01*
X4735663Y4452644D01*
X4735293Y4454493D01*
X4734738Y4456157D01*
X4734091Y4457452D01*
X4733536Y4458561D01*
X4732981Y4459301D01*
X4732612Y4459763D01*
X4732427Y4459948D01*
X4731040Y4461058D01*
X4729561Y4461890D01*
X4727989Y4462537D01*
X4726602Y4462907D01*
X4725308Y4463184D01*
X4724198Y4463277D01*
X4723828Y4463369D01*
X4723274D01*
X4721332Y4463277D01*
X4719575Y4462907D01*
X4718096Y4462352D01*
X4716802Y4461797D01*
X4715785Y4461150D01*
X4715137Y4460688D01*
X4714675Y4460318D01*
X4714490Y4460133D01*
X4713381Y4458839D01*
X4712549Y4457544D01*
X4711901Y4456250D01*
X4711532Y4454956D01*
X4711254Y4453939D01*
X4711162Y4453014D01*
X4711069Y4452459D01*
Y4452367D01*
Y4452274D01*
X4711254Y4450610D01*
X4711624Y4448853D01*
X4712271Y4447282D01*
X4712918Y4445802D01*
X4713658Y4444600D01*
X4714305Y4443583D01*
X4714490Y4443214D01*
X4714675Y4442936D01*
X4714860Y4442844D01*
Y4442751D01*
X4715600Y4441734D01*
X4716524Y4440717D01*
X4717541Y4439608D01*
X4718651Y4438498D01*
X4720962Y4436279D01*
X4723274Y4434060D01*
X4724475Y4433043D01*
X4725492Y4432119D01*
X4726509Y4431287D01*
X4727342Y4430547D01*
X4727989Y4429992D01*
X4728544Y4429530D01*
X4728913Y4429253D01*
X4729006Y4429160D01*
X4731317Y4427219D01*
X4733444Y4425370D01*
X4735200Y4423705D01*
X4736587Y4422319D01*
X4737789Y4421117D01*
X4738621Y4420285D01*
X4739083Y4419730D01*
X4739268Y4419637D01*
Y4419545D01*
X4740563Y4417973D01*
X4741580Y4416494D01*
X4742504Y4415015D01*
X4743244Y4413720D01*
X4743799Y4412611D01*
X4744169Y4411779D01*
X4744353Y4411224D01*
X4744446Y4411131D01*
Y4411039D01*
X4744816Y4410022D01*
X4745001Y4409097D01*
X4745186Y4408173D01*
X4745278Y4407341D01*
X4745370Y4406601D01*
Y4406046D01*
Y4405676D01*
Y4405584D01*
X4702933D01*
Y4413165D01*
X4734461D01*
X4733351Y4414737D01*
X4732796Y4415384D01*
X4732334Y4416032D01*
X4731872Y4416586D01*
X4731502Y4416956D01*
X4731225Y4417233D01*
X4731132Y4417326D01*
X4730670Y4417788D01*
X4730115Y4418250D01*
X4728821Y4419452D01*
X4727342Y4420839D01*
X4725770Y4422226D01*
X4724291Y4423428D01*
X4723643Y4423983D01*
X4723089Y4424538D01*
X4722626Y4424907D01*
X4722256Y4425185D01*
X4722072Y4425370D01*
X4721979Y4425462D01*
X4720500Y4426756D01*
X4719021Y4427958D01*
X4717726Y4429160D01*
X4716524Y4430177D01*
X4715415Y4431194D01*
X4714490Y4432119D01*
X4713566Y4432951D01*
X4712826Y4433691D01*
X4712086Y4434430D01*
X4711532Y4434985D01*
X4711069Y4435447D01*
X4710607Y4435910D01*
X4710145Y4436464D01*
X4709960Y4436649D01*
X4708665Y4438221D01*
X4707556Y4439608D01*
X4706631Y4440995D01*
X4705892Y4442104D01*
X4705337Y4443121D01*
X4704967Y4443861D01*
X4704782Y4444323D01*
X4704690Y4444508D01*
X4704135Y4445895D01*
X4703765Y4447282D01*
X4703395Y4448576D01*
X4703211Y4449686D01*
X4703118Y4450703D01*
X4703026Y4451442D01*
Y4451904D01*
Y4452089D01*
X4703118Y4453476D01*
X4703303Y4454771D01*
X4703488Y4456065D01*
X4703858Y4457174D01*
X4704782Y4459393D01*
X4705707Y4461150D01*
X4706262Y4461982D01*
X4706724Y4462629D01*
X4707186Y4463277D01*
X4707648Y4463739D01*
X4708018Y4464109D01*
X4708203Y4464478D01*
X4708388Y4464571D01*
X4708481Y4464663D01*
X4709498Y4465588D01*
X4710607Y4466420D01*
X4711809Y4467067D01*
X4713011Y4467622D01*
X4715415Y4468547D01*
X4717819Y4469194D01*
X4718836Y4469379D01*
X4719853Y4469564D01*
X4720777Y4469656D01*
X4721517Y4469748D01*
X4722164Y4469841D01*
X4723089D01*
X4724753Y4469748D01*
D02*
G37*
G36*
X4805467Y4432581D02*
Y4430732D01*
X4805374Y4428975D01*
X4805282Y4427311D01*
X4805097Y4425739D01*
X4804912Y4424353D01*
X4804727Y4423058D01*
X4804450Y4421856D01*
X4804265Y4420747D01*
X4804080Y4419730D01*
X4803803Y4418898D01*
X4803618Y4418158D01*
X4803433Y4417603D01*
X4803248Y4417141D01*
X4803155Y4416771D01*
X4803063Y4416586D01*
Y4416494D01*
X4802046Y4414460D01*
X4800752Y4412611D01*
X4799457Y4411131D01*
X4798070Y4409837D01*
X4796868Y4408820D01*
X4795851Y4408080D01*
X4795482Y4407895D01*
X4795204Y4407711D01*
X4795019Y4407526D01*
X4794927D01*
X4792616Y4406509D01*
X4790212Y4405769D01*
X4787715Y4405214D01*
X4785404Y4404844D01*
X4784387Y4404752D01*
X4783370Y4404659D01*
X4782445Y4404567D01*
X4781706D01*
X4781059Y4404475D01*
X4780226D01*
X4776898Y4404659D01*
X4775419Y4404844D01*
X4774032Y4405029D01*
X4772645Y4405307D01*
X4771443Y4405584D01*
X4770334Y4405861D01*
X4769317Y4406231D01*
X4768392Y4406601D01*
X4767652Y4406878D01*
X4766913Y4407156D01*
X4766358Y4407433D01*
X4765896Y4407711D01*
X4765618Y4407803D01*
X4765433Y4407988D01*
X4765341D01*
X4763307Y4409375D01*
X4761643Y4410946D01*
X4760348Y4412426D01*
X4759239Y4413905D01*
X4758407Y4415199D01*
X4757852Y4416216D01*
X4757667Y4416586D01*
X4757482Y4416864D01*
X4757390Y4417049D01*
Y4417141D01*
X4757020Y4418250D01*
X4756650Y4419452D01*
X4756095Y4421949D01*
X4755726Y4424538D01*
X4755448Y4427034D01*
X4755356Y4428143D01*
X4755263Y4429253D01*
Y4430177D01*
X4755171Y4431009D01*
Y4431657D01*
Y4432119D01*
Y4432489D01*
Y4432581D01*
Y4469564D01*
X4763677D01*
Y4432581D01*
Y4430455D01*
X4763862Y4428421D01*
X4764047Y4426664D01*
X4764324Y4425000D01*
X4764601Y4423520D01*
X4764971Y4422134D01*
X4765249Y4420932D01*
X4765618Y4419915D01*
X4765988Y4419083D01*
X4766358Y4418250D01*
X4766728Y4417696D01*
X4767005Y4417141D01*
X4767283Y4416771D01*
X4767467Y4416494D01*
X4767560Y4416401D01*
X4767652Y4416309D01*
X4768484Y4415569D01*
X4769409Y4414922D01*
X4771443Y4413905D01*
X4773570Y4413165D01*
X4775789Y4412703D01*
X4777823Y4412333D01*
X4778655Y4412241D01*
X4779487D01*
X4780041Y4412148D01*
X4780966D01*
X4782908Y4412241D01*
X4784664Y4412518D01*
X4786329Y4412796D01*
X4787623Y4413258D01*
X4788732Y4413628D01*
X4789564Y4413905D01*
X4790027Y4414182D01*
X4790212Y4414275D01*
X4791506Y4415107D01*
X4792616Y4416124D01*
X4793540Y4417141D01*
X4794187Y4418066D01*
X4794742Y4418990D01*
X4795204Y4419637D01*
X4795389Y4420100D01*
X4795482Y4420285D01*
X4795759Y4421117D01*
X4795944Y4421949D01*
X4796314Y4423890D01*
X4796591Y4425924D01*
X4796776Y4427958D01*
X4796868Y4429715D01*
Y4430547D01*
X4796961Y4431194D01*
Y4431749D01*
Y4432211D01*
Y4432489D01*
Y4432581D01*
Y4469564D01*
X4805467D01*
Y4432581D01*
D02*
G37*
D38*
X2270699Y3718199D02*
Y4193200D01*
Y3718199D02*
X2668702D01*
X2385700Y4308201D02*
X2668702D01*
X2902702D02*
X3145699D01*
X2902702Y3718199D02*
X3145699D01*
X3300700Y3873200D02*
Y4153200D01*
X3145699Y4308201D02*
X3300700Y4153200D01*
X3145699Y3718199D02*
X3300700Y3873200D01*
X5607701Y3858600D02*
Y4333601D01*
X5209698D02*
X5607701D01*
X5209698Y3743599D02*
X5492700D01*
X4732701D02*
X4975698D01*
X4732701Y4333601D02*
X4975698D01*
X4577701Y3898600D02*
Y4178600D01*
Y3898600D02*
X4732701Y3743599D01*
X4577701Y4178600D02*
X4732701Y4333601D01*
X4451999Y4582500D02*
Y5057501D01*
X4054002D02*
X4451999D01*
X4054002Y4467499D02*
X4336998D01*
X3577000D02*
X3820002D01*
X3577000Y5057501D02*
X3820002D01*
X3421999Y4622500D02*
Y4902500D01*
Y4622500D02*
X3577000Y4467499D01*
X3421999Y4902500D02*
X3577000Y5057501D01*
%TF.MD5,4f6ccdb24ba93875c02e9bc0d0ed8967*%
M02*
