%TF.GenerationSoftware,Altium Limited,Altium Designer,24.7.2 (38)*%
G04 Layer_Color=2752767*
%FSLAX45Y45*%
%MOMM*%
%TF.SameCoordinates,CC96ED50-5278-442E-815C-D6E1CD6F0417*%
%TF.FilePolarity,Positive*%
%TF.FileFunction,Drawing*%
%TF.Part,Single*%
G01*
G75*
%TA.AperFunction,NonConductor*%
%ADD38C,0.12700*%
%ADD82C,0.16933*%
%ADD83C,0.10160*%
D38*
X393700Y3822700D02*
X419100Y3873500D01*
X393700Y3924300D01*
X444500Y3898900D01*
X495300Y3924300D01*
X469900Y3873500D01*
X495300Y3822700D01*
X444500Y3848100D01*
X393700Y3822700D01*
X414020Y3843020D02*
X429260Y3873500D01*
X414020Y3903980D01*
X444500Y3888740D01*
X474980Y3903980D01*
X459740Y3873500D01*
X474980Y3843020D01*
X444500Y3858260D01*
X414020Y3843020D01*
X393700Y4330700D02*
X419100Y4381500D01*
X393700Y4432300D01*
X444500Y4406900D01*
X495300Y4432300D01*
X469900Y4381500D01*
X495300Y4330700D01*
X444500Y4356100D01*
X393700Y4330700D01*
X414020Y4351020D02*
X429260Y4381500D01*
X414020Y4411980D01*
X444500Y4396740D01*
X474980Y4411980D01*
X459740Y4381500D01*
X474980Y4351020D01*
X444500Y4366260D01*
X414020Y4351020D01*
X7035800Y3602902D02*
Y3704502D01*
X7137400D01*
Y3602902D01*
X7035800D01*
X7056120Y3623222D02*
Y3684182D01*
X7117080D01*
Y3623222D01*
X7056120D01*
X7035800Y4702900D02*
Y4804500D01*
X7137400D01*
Y4702900D01*
X7035800D01*
X7056120Y4723220D02*
Y4784180D01*
X7117080D01*
Y4723220D01*
X7056120D01*
X4123602Y2971800D02*
Y3073400D01*
X4225202D01*
Y2971800D01*
X4123602D01*
X4143922Y2992120D02*
Y3053080D01*
X4204882D01*
Y2992120D01*
X4143922D01*
X5223600Y2971800D02*
Y3073400D01*
X5325200D01*
Y2971800D01*
X5223600D01*
X5243920Y2992120D02*
Y3053080D01*
X5304880D01*
Y2992120D01*
X5243920D01*
X1976700Y2781300D02*
X1925900Y2882900D01*
X2027500D01*
X1976700Y2781300D01*
X2324100Y2798000D02*
Y2899600D01*
X2425700D01*
Y2798000D01*
X2324100D01*
X2344420Y2818320D02*
Y2879280D01*
X2405380D01*
Y2818320D01*
X2344420D01*
X1371600Y5130800D02*
X1320800Y5232400D01*
X1422400D01*
X1371600Y5130800D01*
Y5151120D02*
X1341120Y5212080D01*
X1402080D01*
X1371600Y5151120D01*
Y4876800D02*
X1320800Y4978400D01*
X1422400D01*
X1371600Y4876800D01*
Y4897120D02*
X1341120Y4958080D01*
X1402080D01*
X1371600Y4897120D01*
Y4622800D02*
X1320800Y4724400D01*
X1422400D01*
X1371600Y4622800D01*
Y4643120D02*
X1341120Y4704080D01*
X1402080D01*
X1371600Y4643120D01*
X7289800Y2222500D02*
X7315200Y2273300D01*
X7289800Y2324100D01*
X7340600Y2298700D01*
X7391400Y2324100D01*
X7366000Y2273300D01*
X7391400Y2222500D01*
X7340600Y2247900D01*
X7289800Y2222500D01*
X7310120Y2242820D02*
X7325360Y2273300D01*
X7310120Y2303780D01*
X7340600Y2288540D01*
X7371080Y2303780D01*
X7355840Y2273300D01*
X7371080Y2242820D01*
X7340600Y2258060D01*
X7310120Y2242820D01*
X7289800Y2730500D02*
X7315200Y2781300D01*
X7289800Y2832100D01*
X7340600Y2806700D01*
X7391400Y2832100D01*
X7366000Y2781300D01*
X7391400Y2730500D01*
X7340600Y2755900D01*
X7289800Y2730500D01*
X7310120Y2750820D02*
X7325360Y2781300D01*
X7310120Y2811780D01*
X7340600Y2796540D01*
X7371080Y2811780D01*
X7355840Y2781300D01*
X7371080Y2750820D01*
X7340600Y2766060D01*
X7310120Y2750820D01*
X3771900Y114300D02*
Y215900D01*
X3873500D01*
Y114300D01*
X3771900D01*
X3403600Y5448300D02*
Y5549900D01*
X3505200D01*
Y5448300D01*
X3403600D01*
X5143500Y127000D02*
Y228600D01*
X5245100D01*
Y127000D01*
X5143500D01*
X2459899Y3835400D02*
X2485299Y3886200D01*
X2459899Y3937000D01*
X2510699Y3911600D01*
X2561499Y3937000D01*
X2536099Y3886200D01*
X2561499Y3835400D01*
X2510699Y3860800D01*
X2459899Y3835400D01*
X3009900D02*
X3035300Y3886200D01*
X3009900Y3937000D01*
X3060700Y3911600D01*
X3111500Y3937000D01*
X3086100Y3886200D01*
X3111500Y3835400D01*
X3060700Y3860800D01*
X3009900Y3835400D01*
Y4089400D02*
X3035300Y4140200D01*
X3009900Y4191000D01*
X3060700Y4165600D01*
X3111500Y4191000D01*
X3086100Y4140200D01*
X3111500Y4089400D01*
X3060700Y4114800D01*
X3009900Y4089400D01*
X2295301Y4232798D02*
Y4207398D01*
X2346101D01*
Y4232798D01*
X2371501D01*
Y4283598D01*
X2346101D01*
Y4308998D01*
X2295301D01*
Y4283598D01*
X2269901D01*
Y4232798D01*
X2295301D01*
X2734899Y4152402D02*
X2760299D01*
X2785699Y4177802D01*
X2811099Y4152402D01*
X2836499D01*
Y4177802D01*
X2811099Y4203202D01*
X2836499Y4228602D01*
Y4254002D01*
X2811099D01*
X2785699Y4228602D01*
X2760299Y4254002D01*
X2734899D01*
Y4228602D01*
X2760299Y4203202D01*
X2734899Y4177802D01*
Y4152402D01*
Y3772398D02*
X2760299D01*
X2785699Y3797798D01*
X2811099Y3772398D01*
X2836499D01*
Y3797798D01*
X2811099Y3823198D01*
X2836499Y3848598D01*
Y3873998D01*
X2811099D01*
X2785699Y3848598D01*
X2760299Y3873998D01*
X2734899D01*
Y3848598D01*
X2760299Y3823198D01*
X2734899Y3797798D01*
Y3772398D01*
X2459899Y4089400D02*
X2485299Y4140200D01*
X2459899Y4191000D01*
X2510699Y4165600D01*
X2561499Y4191000D01*
X2536099Y4140200D01*
X2561499Y4089400D01*
X2510699Y4114800D01*
X2459899Y4089400D01*
X1096702Y1003300D02*
X1045902Y1104900D01*
X1147502D01*
X1096702Y1003300D01*
Y1257300D02*
X1045902Y1358900D01*
X1147502D01*
X1096702Y1257300D01*
Y1511300D02*
X1045902Y1612900D01*
X1147502D01*
X1096702Y1511300D01*
Y1765300D02*
X1045902Y1866900D01*
X1147502D01*
X1096702Y1765300D01*
Y2019300D02*
X1045902Y2120900D01*
X1147502D01*
X1096702Y2019300D01*
Y2273300D02*
X1045902Y2374900D01*
X1147502D01*
X1096702Y2273300D01*
Y2527300D02*
X1045902Y2628900D01*
X1147502D01*
X1096702Y2527300D01*
Y2781300D02*
X1045902Y2882900D01*
X1147502D01*
X1096702Y2781300D01*
X1976700Y2527300D02*
X1925900Y2628900D01*
X2027500D01*
X1976700Y2527300D01*
Y2273300D02*
X1925900Y2374900D01*
X2027500D01*
X1976700Y2273300D01*
Y2019300D02*
X1925900Y2120900D01*
X2027500D01*
X1976700Y2019300D01*
Y1765300D02*
X1925900Y1866900D01*
X2027500D01*
X1976700Y1765300D01*
Y1511300D02*
X1925900Y1612900D01*
X2027500D01*
X1976700Y1511300D01*
Y1257300D02*
X1925900Y1358900D01*
X2027500D01*
X1976700Y1257300D01*
Y1003300D02*
X1925900Y1104900D01*
X2027500D01*
X1976700Y1003300D01*
X4330700Y2616200D02*
X4356100Y2641600D01*
X4381500D01*
X4356100Y2667000D01*
X4381500Y2692400D01*
X4356100D01*
X4330700Y2717800D01*
X4305300Y2692400D01*
X4279900D01*
X4305300Y2667000D01*
X4279900Y2641600D01*
X4305300D01*
X4330700Y2616200D01*
X4584700D02*
X4610100Y2641600D01*
X4635500D01*
X4610100Y2667000D01*
X4635500Y2692400D01*
X4610100D01*
X4584700Y2717800D01*
X4559300Y2692400D01*
X4533900D01*
X4559300Y2667000D01*
X4533900Y2641600D01*
X4559300D01*
X4584700Y2616200D01*
X4838700D02*
X4864100Y2641600D01*
X4889500D01*
X4864100Y2667000D01*
X4889500Y2692400D01*
X4864100D01*
X4838700Y2717800D01*
X4813300Y2692400D01*
X4787900D01*
X4813300Y2667000D01*
X4787900Y2641600D01*
X4813300D01*
X4838700Y2616200D01*
X5092700D02*
X5118100Y2641600D01*
X5143500D01*
X5118100Y2667000D01*
X5143500Y2692400D01*
X5118100D01*
X5092700Y2717800D01*
X5067300Y2692400D01*
X5041900D01*
X5067300Y2667000D01*
X5041900Y2641600D01*
X5067300D01*
X5092700Y2616200D01*
X5346700D02*
X5372100Y2641600D01*
X5397500D01*
X5372100Y2667000D01*
X5397500Y2692400D01*
X5372100D01*
X5346700Y2717800D01*
X5321300Y2692400D01*
X5295900D01*
X5321300Y2667000D01*
X5295900Y2641600D01*
X5321300D01*
X5346700Y2616200D01*
X5600700D02*
X5626100Y2641600D01*
X5651500D01*
X5626100Y2667000D01*
X5651500Y2692400D01*
X5626100D01*
X5600700Y2717800D01*
X5575300Y2692400D01*
X5549900D01*
X5575300Y2667000D01*
X5549900Y2641600D01*
X5575300D01*
X5600700Y2616200D01*
X5854700D02*
X5880100Y2641600D01*
X5905500D01*
X5880100Y2667000D01*
X5905500Y2692400D01*
X5880100D01*
X5854700Y2717800D01*
X5829300Y2692400D01*
X5803900D01*
X5829300Y2667000D01*
X5803900Y2641600D01*
X5829300D01*
X5854700Y2616200D01*
Y1790700D02*
X5880100Y1816100D01*
X5905500D01*
X5880100Y1841500D01*
X5905500Y1866900D01*
X5880100D01*
X5854700Y1892300D01*
X5829300Y1866900D01*
X5803900D01*
X5829300Y1841500D01*
X5803900Y1816100D01*
X5829300D01*
X5854700Y1790700D01*
X5600700D02*
X5626100Y1816100D01*
X5651500D01*
X5626100Y1841500D01*
X5651500Y1866900D01*
X5626100D01*
X5600700Y1892300D01*
X5575300Y1866900D01*
X5549900D01*
X5575300Y1841500D01*
X5549900Y1816100D01*
X5575300D01*
X5600700Y1790700D01*
X5346700D02*
X5372100Y1816100D01*
X5397500D01*
X5372100Y1841500D01*
X5397500Y1866900D01*
X5372100D01*
X5346700Y1892300D01*
X5321300Y1866900D01*
X5295900D01*
X5321300Y1841500D01*
X5295900Y1816100D01*
X5321300D01*
X5346700Y1790700D01*
X5092700D02*
X5118100Y1816100D01*
X5143500D01*
X5118100Y1841500D01*
X5143500Y1866900D01*
X5118100D01*
X5092700Y1892300D01*
X5067300Y1866900D01*
X5041900D01*
X5067300Y1841500D01*
X5041900Y1816100D01*
X5067300D01*
X5092700Y1790700D01*
X4838700D02*
X4864100Y1816100D01*
X4889500D01*
X4864100Y1841500D01*
X4889500Y1866900D01*
X4864100D01*
X4838700Y1892300D01*
X4813300Y1866900D01*
X4787900D01*
X4813300Y1841500D01*
X4787900Y1816100D01*
X4813300D01*
X4838700Y1790700D01*
X4584700D02*
X4610100Y1816100D01*
X4635500D01*
X4610100Y1841500D01*
X4635500Y1866900D01*
X4610100D01*
X4584700Y1892300D01*
X4559300Y1866900D01*
X4533900D01*
X4559300Y1841500D01*
X4533900Y1816100D01*
X4559300D01*
X4584700Y1790700D01*
X4330700D02*
X4356100Y1816100D01*
X4381500D01*
X4356100Y1841500D01*
X4381500Y1866900D01*
X4356100D01*
X4330700Y1892300D01*
X4305300Y1866900D01*
X4279900D01*
X4305300Y1841500D01*
X4279900Y1816100D01*
X4305300D01*
X4330700Y1790700D01*
X2324100Y3298000D02*
Y3399600D01*
X2425700D01*
Y3298000D01*
X2324100D01*
X2344420Y3318320D02*
Y3379280D01*
X2405380D01*
Y3318320D01*
X2344420D01*
X6565900Y127000D02*
Y228600D01*
X6667500D01*
Y127000D01*
X6565900D01*
X1930400Y203200D02*
Y304800D01*
X2032000D01*
Y203200D01*
X1930400D01*
X1625600D02*
Y304800D01*
X1727200D01*
Y203200D01*
X1625600D01*
X1308100D02*
Y304800D01*
X1409700D01*
Y203200D01*
X1308100D01*
X1003300D02*
Y304800D01*
X1104900D01*
Y203200D01*
X1003300D01*
X3708400Y5448300D02*
Y5549900D01*
X3810000D01*
Y5448300D01*
X3708400D01*
X4013200D02*
Y5549900D01*
X4114800D01*
Y5448300D01*
X4013200D01*
X4318000D02*
Y5549900D01*
X4419600D01*
Y5448300D01*
X4318000D01*
X3683000Y2886801D02*
Y2988401D01*
X3784600D01*
Y2886801D01*
X3683000D01*
X3703320Y2907121D02*
Y2968081D01*
X3764280D01*
Y2907121D01*
X3703320D01*
X3683000Y1786799D02*
Y1888399D01*
X3784600D01*
Y1786799D01*
X3683000D01*
X3703320Y1807119D02*
Y1868079D01*
X3764280D01*
Y1807119D01*
X3703320D01*
X6375400Y1757502D02*
Y1859102D01*
X6477000D01*
Y1757502D01*
X6375400D01*
X6395720Y1777822D02*
Y1838782D01*
X6456680D01*
Y1777822D01*
X6395720D01*
X6375400Y2857500D02*
Y2959100D01*
X6477000D01*
Y2857500D01*
X6375400D01*
X6395720Y2877820D02*
Y2938780D01*
X6456680D01*
Y2877820D01*
X6395720D01*
X2844800Y2024202D02*
Y2125802D01*
X2946400D01*
Y2024202D01*
X2844800D01*
X2865120Y2044522D02*
Y2105482D01*
X2926080D01*
Y2044522D01*
X2865120D01*
X2844800Y3124200D02*
Y3225800D01*
X2946400D01*
Y3124200D01*
X2844800D01*
X2865120Y3144520D02*
Y3205480D01*
X2926080D01*
Y3144520D01*
X2865120D01*
X4568102Y3365500D02*
Y3467100D01*
X4669702D01*
Y3365500D01*
X4568102D01*
X4588422Y3385820D02*
Y3446780D01*
X4649382D01*
Y3385820D01*
X4588422D01*
X5668100Y3365500D02*
Y3467100D01*
X5769700D01*
Y3365500D01*
X5668100D01*
X5688420Y3385820D02*
Y3446780D01*
X5749380D01*
Y3385820D01*
X5688420D01*
X2832100Y4978400D02*
Y5080000D01*
X2933700D01*
Y4978400D01*
X2832100D01*
X2852420Y4998720D02*
Y5059680D01*
X2913380D01*
Y4998720D01*
X2852420D01*
X1732097Y4978400D02*
Y5080000D01*
X1833697D01*
Y4978400D01*
X1732097D01*
X1752417Y4998720D02*
Y5059680D01*
X1813377D01*
Y4998720D01*
X1752417D01*
X4321901Y1346200D02*
Y1447800D01*
X4423501D01*
Y1346200D01*
X4321901D01*
X4342221Y1366520D02*
Y1427480D01*
X4403181D01*
Y1366520D01*
X4342221D01*
X3221899Y1346200D02*
Y1447800D01*
X3323499D01*
Y1346200D01*
X3221899D01*
X3242219Y1366520D02*
Y1427480D01*
X3303179D01*
Y1366520D01*
X3242219D01*
X5712551Y1346200D02*
Y1447800D01*
X5814151D01*
Y1346200D01*
X5712551D01*
X5732871Y1366520D02*
Y1427480D01*
X5793831D01*
Y1366520D01*
X5732871D01*
X4612549Y1346200D02*
Y1447800D01*
X4714149D01*
Y1346200D01*
X4612549D01*
X4632869Y1366520D02*
Y1427480D01*
X4693829D01*
Y1366520D01*
X4632869D01*
X5914299Y1371600D02*
Y1473200D01*
X6015899D01*
Y1371600D01*
X5914299D01*
X5934619Y1391920D02*
Y1452880D01*
X5995579D01*
Y1391920D01*
X5934619D01*
X7014301Y1371600D02*
Y1473200D01*
X7115901D01*
Y1371600D01*
X7014301D01*
X7034621Y1391920D02*
Y1452880D01*
X7095581D01*
Y1391920D01*
X7034621D01*
X3568700Y711200D02*
X3517900Y812800D01*
X3619500D01*
X3568700Y711200D01*
Y731520D02*
X3538220Y792480D01*
X3599180D01*
X3568700Y731520D01*
X3822700Y711200D02*
X3771900Y812800D01*
X3873500D01*
X3822700Y711200D01*
Y731520D02*
X3792220Y792480D01*
X3853180D01*
X3822700Y731520D01*
X4076700Y711200D02*
X4025900Y812800D01*
X4127500D01*
X4076700Y711200D01*
Y731520D02*
X4046220Y792480D01*
X4107180D01*
X4076700Y731520D01*
X5461000Y698500D02*
X5410200Y800100D01*
X5511800D01*
X5461000Y698500D01*
Y718820D02*
X5430520Y779780D01*
X5491480D01*
X5461000Y718820D01*
X5207000Y698500D02*
X5156200Y800100D01*
X5257800D01*
X5207000Y698500D01*
Y718820D02*
X5176520Y779780D01*
X5237480D01*
X5207000Y718820D01*
X4953000Y698500D02*
X4902200Y800100D01*
X5003800D01*
X4953000Y698500D01*
Y718820D02*
X4922520Y779780D01*
X4983480D01*
X4953000Y718820D01*
X6337300Y711200D02*
X6286500Y812800D01*
X6388100D01*
X6337300Y711200D01*
Y731520D02*
X6306820Y792480D01*
X6367780D01*
X6337300Y731520D01*
X6591300Y711200D02*
X6540500Y812800D01*
X6642100D01*
X6591300Y711200D01*
Y731520D02*
X6560820Y792480D01*
X6621780D01*
X6591300Y731520D01*
X6845300Y711200D02*
X6794500Y812800D01*
X6896100D01*
X6845300Y711200D01*
Y731520D02*
X6814820Y792480D01*
X6875780D01*
X6845300Y731520D01*
X5316901Y4114800D02*
X5342301Y4165600D01*
X5316901Y4216400D01*
X5367701Y4191000D01*
X5418501Y4216400D01*
X5393101Y4165600D01*
X5418501Y4114800D01*
X5367701Y4140200D01*
X5316901Y4114800D01*
X4766900D02*
X4792300Y4165600D01*
X4766900Y4216400D01*
X4817700Y4191000D01*
X4868500Y4216400D01*
X4843100Y4165600D01*
X4868500Y4114800D01*
X4817700Y4140200D01*
X4766900Y4114800D01*
Y3860800D02*
X4792300Y3911600D01*
X4766900Y3962400D01*
X4817700Y3937000D01*
X4868500Y3962400D01*
X4843100Y3911600D01*
X4868500Y3860800D01*
X4817700Y3886200D01*
X4766900Y3860800D01*
X5532299Y3768202D02*
Y3742802D01*
X5583099D01*
Y3768202D01*
X5608499D01*
Y3819002D01*
X5583099D01*
Y3844402D01*
X5532299D01*
Y3819002D01*
X5506899D01*
Y3768202D01*
X5532299D01*
X5041901Y3797798D02*
X5067301D01*
X5092701Y3823198D01*
X5118101Y3797798D01*
X5143501D01*
Y3823198D01*
X5118101Y3848598D01*
X5143501Y3873998D01*
Y3899398D01*
X5118101D01*
X5092701Y3873998D01*
X5067301Y3899398D01*
X5041901D01*
Y3873998D01*
X5067301Y3848598D01*
X5041901Y3823198D01*
Y3797798D01*
Y4177802D02*
X5067301D01*
X5092701Y4203202D01*
X5118101Y4177802D01*
X5143501D01*
Y4203202D01*
X5118101Y4228602D01*
X5143501Y4254002D01*
Y4279402D01*
X5118101D01*
X5092701Y4254002D01*
X5067301Y4279402D01*
X5041901D01*
Y4254002D01*
X5067301Y4228602D01*
X5041901Y4203202D01*
Y4177802D01*
X5316901Y3860800D02*
X5342301Y3911600D01*
X5316901Y3962400D01*
X5367701Y3937000D01*
X5418501Y3962400D01*
X5393101Y3911600D01*
X5418501Y3860800D01*
X5367701Y3886200D01*
X5316901Y3860800D01*
X4161200Y4838700D02*
X4186600Y4889500D01*
X4161200Y4940300D01*
X4212000Y4914900D01*
X4262800Y4940300D01*
X4237400Y4889500D01*
X4262800Y4838700D01*
X4212000Y4864100D01*
X4161200Y4838700D01*
X3611199D02*
X3636599Y4889500D01*
X3611199Y4940300D01*
X3661999Y4914900D01*
X3712799Y4940300D01*
X3687399Y4889500D01*
X3712799Y4838700D01*
X3661999Y4864100D01*
X3611199Y4838700D01*
Y4584700D02*
X3636599Y4635500D01*
X3611199Y4686300D01*
X3661999Y4660900D01*
X3712799Y4686300D01*
X3687399Y4635500D01*
X3712799Y4584700D01*
X3661999Y4610100D01*
X3611199Y4584700D01*
X4376602Y4492102D02*
Y4466702D01*
X4427402D01*
Y4492102D01*
X4452802D01*
Y4542902D01*
X4427402D01*
Y4568302D01*
X4376602D01*
Y4542902D01*
X4351202D01*
Y4492102D01*
X4376602D01*
X3886199Y4521698D02*
X3911599D01*
X3936999Y4547098D01*
X3962399Y4521698D01*
X3987799D01*
Y4547098D01*
X3962399Y4572498D01*
X3987799Y4597898D01*
Y4623298D01*
X3962399D01*
X3936999Y4597898D01*
X3911599Y4623298D01*
X3886199D01*
Y4597898D01*
X3911599Y4572498D01*
X3886199Y4547098D01*
Y4521698D01*
Y4901702D02*
X3911599D01*
X3936999Y4927102D01*
X3962399Y4901702D01*
X3987799D01*
Y4927102D01*
X3962399Y4952502D01*
X3987799Y4977902D01*
Y5003302D01*
X3962399D01*
X3936999Y4977902D01*
X3911599Y5003302D01*
X3886199D01*
Y4977902D01*
X3911599Y4952502D01*
X3886199Y4927102D01*
Y4901702D01*
X4161200Y4584700D02*
X4186600Y4635500D01*
X4161200Y4686300D01*
X4212000Y4660900D01*
X4262800Y4686300D01*
X4237400Y4635500D01*
X4262800Y4584700D01*
X4212000Y4610100D01*
X4161200Y4584700D01*
X622300Y3285300D02*
Y3386900D01*
X723900D01*
Y3285300D01*
X622300D01*
X642620Y3305620D02*
Y3366580D01*
X703580D01*
Y3305620D01*
X642620D01*
X622300Y2785300D02*
Y2886900D01*
X723900D01*
Y2785300D01*
X622300D01*
X642620Y2805620D02*
Y2866580D01*
X703580D01*
Y2805620D01*
X642620D01*
X292100Y5486400D02*
X342900Y5537200D01*
X393700Y5486400D01*
X342900Y5435600D01*
X292100Y5486400D01*
X7378700Y5473700D02*
X7429500Y5524500D01*
X7480300Y5473700D01*
X7429500Y5422900D01*
X7378700Y5473700D01*
X304800Y342900D02*
X355600Y393700D01*
X406400Y342900D01*
X355600Y292100D01*
X304800Y342900D01*
X7378700Y317500D02*
X7429500Y368300D01*
X7480300Y317500D01*
X7429500Y266700D01*
X7378700Y317500D01*
X4076700Y1016000D02*
X4102100Y1041400D01*
X4127500D01*
X4102100Y1066800D01*
X4127500Y1092200D01*
X4102100D01*
X4076700Y1117600D01*
X4051300Y1092200D01*
X4025900D01*
X4051300Y1066800D01*
X4025900Y1041400D01*
X4051300D01*
X4076700Y1016000D01*
Y1036320D02*
X4091940Y1051560D01*
X4107180D01*
X4091940Y1066800D01*
X4107180Y1082040D01*
X4091940D01*
X4076700Y1097280D01*
X4061460Y1082040D01*
X4046220D01*
X4061460Y1066800D01*
X4046220Y1051560D01*
X4061460D01*
X4076700Y1036320D01*
X6845300Y1028700D02*
X6870700Y1054100D01*
X6896100D01*
X6870700Y1079500D01*
X6896100Y1104900D01*
X6870700D01*
X6845300Y1130300D01*
X6819900Y1104900D01*
X6794500D01*
X6819900Y1079500D01*
X6794500Y1054100D01*
X6819900D01*
X6845300Y1028700D01*
Y1049020D02*
X6860540Y1064260D01*
X6875780D01*
X6860540Y1079500D01*
X6875780Y1094740D01*
X6860540D01*
X6845300Y1109980D01*
X6830060Y1094740D01*
X6814820D01*
X6830060Y1079500D01*
X6814820Y1064260D01*
X6830060D01*
X6845300Y1049020D01*
X5461000Y1016000D02*
X5486400Y1041400D01*
X5511800D01*
X5486400Y1066800D01*
X5511800Y1092200D01*
X5486400D01*
X5461000Y1117600D01*
X5435600Y1092200D01*
X5410200D01*
X5435600Y1066800D01*
X5410200Y1041400D01*
X5435600D01*
X5461000Y1016000D01*
Y1036320D02*
X5476240Y1051560D01*
X5491480D01*
X5476240Y1066800D01*
X5491480Y1082040D01*
X5476240D01*
X5461000Y1097280D01*
X5445760Y1082040D01*
X5430520D01*
X5445760Y1066800D01*
X5430520Y1051560D01*
X5445760D01*
X5461000Y1036320D01*
X3467100Y5257800D02*
X3492500Y5283200D01*
X3517900D01*
X3492500Y5308600D01*
X3517900Y5334000D01*
X3492500D01*
X3467100Y5359400D01*
X3441700Y5334000D01*
X3416300D01*
X3441700Y5308600D01*
X3416300Y5283200D01*
X3441700D01*
X3467100Y5257800D01*
Y5278120D02*
X3482340Y5293360D01*
X3497580D01*
X3482340Y5308600D01*
X3497580Y5323840D01*
X3482340D01*
X3467100Y5339080D01*
X3451860Y5323840D01*
X3436620D01*
X3451860Y5308600D01*
X3436620Y5293360D01*
X3451860D01*
X3467100Y5278120D01*
X3670300Y5105400D02*
X3695700Y5130800D01*
X3721100D01*
X3695700Y5156200D01*
X3721100Y5181600D01*
X3695700D01*
X3670300Y5207000D01*
X3644900Y5181600D01*
X3619500D01*
X3644900Y5156200D01*
X3619500Y5130800D01*
X3644900D01*
X3670300Y5105400D01*
Y5125720D02*
X3685540Y5140960D01*
X3700780D01*
X3685540Y5156200D01*
X3700780Y5171440D01*
X3685540D01*
X3670300Y5186680D01*
X3655060Y5171440D01*
X3639820D01*
X3655060Y5156200D01*
X3639820Y5140960D01*
X3655060D01*
X3670300Y5125720D01*
X7340600Y1803400D02*
X7366000Y1828800D01*
X7391400D01*
X7366000Y1854200D01*
X7391400Y1879600D01*
X7366000D01*
X7340600Y1905000D01*
X7315200Y1879600D01*
X7289800D01*
X7315200Y1854200D01*
X7289800Y1828800D01*
X7315200D01*
X7340600Y1803400D01*
Y1823720D02*
X7355840Y1838960D01*
X7371080D01*
X7355840Y1854200D01*
X7371080Y1869440D01*
X7355840D01*
X7340600Y1884680D01*
X7325360Y1869440D01*
X7310120D01*
X7325360Y1854200D01*
X7310120Y1838960D01*
X7325360D01*
X7340600Y1823720D01*
X4546600Y3886200D02*
X4572000Y3911600D01*
X4597400D01*
X4572000Y3937000D01*
X4597400Y3962400D01*
X4572000D01*
X4546600Y3987800D01*
X4521200Y3962400D01*
X4495800D01*
X4521200Y3937000D01*
X4495800Y3911600D01*
X4521200D01*
X4546600Y3886200D01*
Y3906520D02*
X4561840Y3921760D01*
X4577080D01*
X4561840Y3937000D01*
X4577080Y3952240D01*
X4561840D01*
X4546600Y3967480D01*
X4531360Y3952240D01*
X4516120D01*
X4531360Y3937000D01*
X4516120Y3921760D01*
X4531360D01*
X4546600Y3906520D01*
X2184400Y3835400D02*
X2209800Y3860800D01*
X2235200D01*
X2209800Y3886200D01*
X2235200Y3911600D01*
X2209800D01*
X2184400Y3937000D01*
X2159000Y3911600D01*
X2133600D01*
X2159000Y3886200D01*
X2133600Y3860800D01*
X2159000D01*
X2184400Y3835400D01*
Y3855720D02*
X2199640Y3870960D01*
X2214880D01*
X2199640Y3886200D01*
X2214880Y3901440D01*
X2199640D01*
X2184400Y3916680D01*
X2169160Y3901440D01*
X2153920D01*
X2169160Y3886200D01*
X2153920Y3870960D01*
X2169160D01*
X2184400Y3855720D01*
X927100Y4330700D02*
X952500Y4356100D01*
X977900D01*
X952500Y4381500D01*
X977900Y4406900D01*
X952500D01*
X927100Y4432300D01*
X901700Y4406900D01*
X876300D01*
X901700Y4381500D01*
X876300Y4356100D01*
X901700D01*
X927100Y4330700D01*
Y4351020D02*
X942340Y4366260D01*
X957580D01*
X942340Y4381500D01*
X957580Y4396740D01*
X942340D01*
X927100Y4411980D01*
X911860Y4396740D01*
X896620D01*
X911860Y4381500D01*
X896620Y4366260D01*
X911860D01*
X927100Y4351020D01*
X4330700Y4216400D02*
X4356100Y4241800D01*
X4381500D01*
X4356100Y4267200D01*
X4381500Y4292600D01*
X4356100D01*
X4330700Y4318000D01*
X4305300Y4292600D01*
X4279900D01*
X4305300Y4267200D01*
X4279900Y4241800D01*
X4305300D01*
X4330700Y4216400D01*
Y4236720D02*
X4345940Y4251960D01*
X4361180D01*
X4345940Y4267200D01*
X4361180Y4282440D01*
X4345940D01*
X4330700Y4297680D01*
X4315460Y4282440D01*
X4300220D01*
X4315460Y4267200D01*
X4300220Y4251960D01*
X4315460D01*
X4330700Y4236720D01*
D82*
X482600Y1320800D02*
G03*
X482600Y1320800I-50800J0D01*
G01*
X736600D02*
G03*
X736600Y1320800I-50800J0D01*
G01*
X6324600Y3606800D02*
G03*
X6324600Y3606800I-50800J0D01*
G01*
X6578600D02*
G03*
X6578600Y3606800I-50800J0D01*
G01*
X1689100Y3556000D02*
G03*
X1689100Y3556000I-50800J0D01*
G01*
X1435100D02*
G03*
X1435100Y3556000I-50800J0D01*
G01*
X4089400Y3975100D02*
G03*
X4089400Y3975100I-50800J0D01*
G01*
X3835400D02*
G03*
X3835400Y3975100I-50800J0D01*
G01*
X2717800Y1320800D02*
G03*
X2717800Y1320800I-50800J0D01*
G01*
X2463800D02*
G03*
X2463800Y1320800I-50800J0D01*
G01*
D83*
X6304280Y3606800D02*
G03*
X6304280Y3606800I-30480J0D01*
G01*
X6558280D02*
G03*
X6558280Y3606800I-30480J0D01*
G01*
X1668780Y3556000D02*
G03*
X1668780Y3556000I-30480J0D01*
G01*
X1414780D02*
G03*
X1414780Y3556000I-30480J0D01*
G01*
X4069080Y3975100D02*
G03*
X4069080Y3975100I-30480J0D01*
G01*
X3815080D02*
G03*
X3815080Y3975100I-30480J0D01*
G01*
%TF.MD5,f018a09533a4e6dd5d881dd30a77611a*%
M02*
