M48
;Layer_Color=9474304
;FILE_FORMAT=2:3
INCH,LZ
;TYPE=PLATED
T01F00S00C0.028
T02F00S00C0.028
T03F00S00C0.031
T04F00S00C0.033
T05F00S00C0.035
T06F00S00C0.035
T07F00S00C0.037
T08F00S00C0.039
T09F00S00C0.041
T10F00S00C0.125
%
T01
X01405Y003
X01505
X01605
X0195Y00295
X0205
X0215
X02495Y003
X02595
X02695
X00465Y0179
X00365
X00265
T02
X01705Y0168
T03
X01288Y0055
X01722
X01836
X02269
X02348Y0056
X02782
X0284Y00768
X0253Y00712
Y01145
X0284Y01202
X02152Y01195
X02252Y01345
X01818
X01718Y01195
X0147Y01157
X0114Y0125
X00935Y01317
Y0112
X0114Y00817
X0147Y00723
X01135Y0198
X00702
X00265Y01313
Y01117
T04
X02205Y00725
X02305
Y0105
X02205
X02105
X02005
X01905
X01805
X01705
Y00725
X01805
X01905
X02005
X02105
T05
X0017Y0052
X0027
X0095
X0105
T06
X00432Y00415
Y00515
X00778
Y00415
Y00615
Y00715
Y00815
Y00915
Y01015
Y01115
X00432
Y01015
Y00915
Y00815
Y00715
Y00615
T07
X0247Y0142
X0257
X0159Y01565
X0149
X00645Y014
X00545
T08
X00988Y0153
Y0163
X01205
Y0153
X01442Y01825
Y01925
X01658
Y01825
X01897Y0164
Y0154
X02113
Y0164
T09
X00415Y001
X00535
X0066
X0078
X0106Y00095
X0118
X02045Y0007
X02605
X0172Y02165
X016
X0148
T10
X0014Y00135
X0293Y0013
X0014Y02155
X02925
M30
