M48
;Layer_Color=9474304
;FILE_FORMAT=2:3
INCH,LZ
;TYPE=PLATED
T01F00S00C0.028
T02F00S00C0.031
T03F00S00C0.033
T04F00S00C0.035
T05F00S00C0.037
T06F00S00C0.039
T07F00S00C0.041
T08F00S00C0.125
;TYPE=NON_PLATED
T09F00S00C0.039
T10F00S00C0.098
%
T01
X01405Y003
X01505Y003
X01605Y003
X0195Y00295
X0205Y00295
X0215Y00295
X02495Y003
X02595Y003
X02695Y003
X01705Y0168
X00465Y0179
X00365Y0179
X00265Y0179
T02
X01288Y0055
X01722Y0055
X01836Y0055
X02269Y0055
X02348Y0056
X02782Y0056
X0284Y00768
X0253Y00712
X0253Y01145
X0284Y01202
X02152Y01195
X02252Y01345
X01818Y01345
X01718Y01195
X0147Y01157
X0114Y0125
X00935Y01317
X00935Y0112
X0114Y00817
X0147Y00723
X01135Y0198
X00702Y0198
X00265Y01313
X00265Y01117
T03
X02205Y00725
X02305Y00725
X02305Y0105
X02205Y0105
X02105Y0105
X02005Y0105
X01905Y0105
X01805Y0105
X01705Y0105
X01705Y00725
X01805Y00725
X01905Y00725
X02005Y00725
X02105Y00725
T04
X0017Y0052
X0027Y0052
X00432Y00515
X00432Y00415
X00778Y00415
X00778Y00515
X0095Y0052
X0105Y0052
X00778Y00615
X00778Y00715
X00778Y00815
X00778Y00915
X00778Y01015
X00778Y01115
X00432Y01115
X00432Y01015
X00432Y00915
X00432Y00815
X00432Y00715
X00432Y00615
T05
X0247Y0142
X0257Y0142
X0159Y01565
X0149Y01565
X00645Y014
X00545Y014
T06
X00988Y0153
X00988Y0163
X01205Y0163
X01205Y0153
X01442Y01825
X01442Y01925
X01658Y01925
X01658Y01825
X01897Y0164
X01897Y0154
X02113Y0154
X02113Y0164
T07
X00415Y001
X00535Y001
X0066Y001
X0078Y001
X0106Y00095
X0118Y00095
X02045Y0007
X02605Y0007
X0172Y02165
X016Y02165
X0148Y02165
T08
X0014Y00135
X0293Y0013
X0014Y02155
X02925Y02155
T09
X02188Y01494
X01733Y01779
X00914Y01676
T10
X01097Y01505
X01097Y01655
X0155Y018
X0155Y0195
X02005Y01665
X02005Y01515
M30
