%TF.GenerationSoftware,Altium Limited,Altium Designer,24.7.2 (38)*%
G04 Layer_Color=128*
%FSLAX45Y45*%
%MOMM*%
%TF.SameCoordinates,CC96ED50-5278-442E-815C-D6E1CD6F0417*%
%TF.FilePolarity,Positive*%
%TF.FileFunction,Drillmap*%
%TF.Part,Single*%
G01*
G75*
%TA.AperFunction,NonConductor*%
%ADD38C,0.12700*%
D38*
X389500Y3873500D02*
X499500D01*
X444500Y3818500D02*
Y3928500D01*
X389500Y4381500D02*
X499500D01*
X444500Y4326500D02*
Y4436500D01*
X7046600Y3653702D02*
X7126600D01*
X7086600Y3613702D02*
Y3693702D01*
X7046600Y4753700D02*
X7126600D01*
X7086600Y4713700D02*
Y4793700D01*
X4134402Y3022600D02*
X4214402D01*
X4174402Y2982600D02*
Y3062600D01*
X5234400Y3022600D02*
X5314400D01*
X5274400Y2982600D02*
Y3062600D01*
X1931700Y2832100D02*
X2021700D01*
X1976700Y2787100D02*
Y2877100D01*
X2334900Y2848800D02*
X2414900D01*
X2374900Y2808800D02*
Y2888800D01*
X1336100Y5181600D02*
X1407100D01*
X1371600Y5146100D02*
Y5217100D01*
X1336100Y4927600D02*
X1407100D01*
X1371600Y4892100D02*
Y4963100D01*
X1336100Y4673600D02*
X1407100D01*
X1371600Y4638100D02*
Y4709100D01*
X7285600Y2273300D02*
X7395600D01*
X7340600Y2218300D02*
Y2328300D01*
X7285600Y2781300D02*
X7395600D01*
X7340600Y2726300D02*
Y2836300D01*
X3770700Y165100D02*
X3874700D01*
X3822700Y113100D02*
Y217100D01*
X3402400Y5499100D02*
X3506400D01*
X3454400Y5447100D02*
Y5551100D01*
X5142300Y177800D02*
X5246300D01*
X5194300Y125800D02*
Y229800D01*
X387300Y1320800D02*
X476300D01*
X431800Y1276300D02*
Y1365300D01*
X641300Y1320800D02*
X730300D01*
X685800Y1276300D02*
Y1365300D01*
X2460699Y3886200D02*
X2560698D01*
X2510699Y3836200D02*
Y3936200D01*
X3010700Y3886200D02*
X3110700D01*
X3060700Y3836200D02*
Y3936200D01*
X3010700Y4140200D02*
X3110700D01*
X3060700Y4090200D02*
Y4190200D01*
X2270702Y4258198D02*
X2370701D01*
X2320701Y4208198D02*
Y4308198D01*
X2660699Y4203202D02*
X2910699D01*
X2785699Y4078202D02*
Y4328202D01*
X2660699Y3823198D02*
X2910699D01*
X2785699Y3698198D02*
Y3948198D01*
X2460699Y4140200D02*
X2560698D01*
X2510699Y4090200D02*
Y4190200D01*
X6227300Y3606800D02*
X6320300D01*
X6273800Y3560300D02*
Y3653300D01*
X6481300Y3606800D02*
X6574300D01*
X6527800Y3560300D02*
Y3653300D01*
X1051702Y1054100D02*
X1141702D01*
X1096702Y1009100D02*
Y1099100D01*
X1051702Y1308100D02*
X1141702D01*
X1096702Y1263100D02*
Y1353100D01*
X1051702Y1562100D02*
X1141702D01*
X1096702Y1517100D02*
Y1607100D01*
X1051702Y1816100D02*
X1141702D01*
X1096702Y1771100D02*
Y1861100D01*
X1051702Y2070100D02*
X1141702D01*
X1096702Y2025100D02*
Y2115100D01*
X1051702Y2324100D02*
X1141702D01*
X1096702Y2279100D02*
Y2369100D01*
X1051702Y2578100D02*
X1141702D01*
X1096702Y2533100D02*
Y2623100D01*
X1051702Y2832100D02*
X1141702D01*
X1096702Y2787100D02*
Y2877100D01*
X1931700Y2578100D02*
X2021700D01*
X1976700Y2533100D02*
Y2623100D01*
X1931700Y2324100D02*
X2021700D01*
X1976700Y2279100D02*
Y2369100D01*
X1931700Y2070100D02*
X2021700D01*
X1976700Y2025100D02*
Y2115100D01*
X1931700Y1816100D02*
X2021700D01*
X1976700Y1771100D02*
Y1861100D01*
X1931700Y1562100D02*
X2021700D01*
X1976700Y1517100D02*
Y1607100D01*
X1931700Y1308100D02*
X2021700D01*
X1976700Y1263100D02*
Y1353100D01*
X1931700Y1054100D02*
X2021700D01*
X1976700Y1009100D02*
Y1099100D01*
X4289200Y2667000D02*
X4372200D01*
X4330700Y2625500D02*
Y2708500D01*
X4543200Y2667000D02*
X4626200D01*
X4584700Y2625500D02*
Y2708500D01*
X4797200Y2667000D02*
X4880200D01*
X4838700Y2625500D02*
Y2708500D01*
X5051200Y2667000D02*
X5134200D01*
X5092700Y2625500D02*
Y2708500D01*
X5305200Y2667000D02*
X5388200D01*
X5346700Y2625500D02*
Y2708500D01*
X5559200Y2667000D02*
X5642200D01*
X5600700Y2625500D02*
Y2708500D01*
X5813200Y2667000D02*
X5896200D01*
X5854700Y2625500D02*
Y2708500D01*
X5813200Y1841500D02*
X5896200D01*
X5854700Y1800000D02*
Y1883000D01*
X5559200Y1841500D02*
X5642200D01*
X5600700Y1800000D02*
Y1883000D01*
X5305200Y1841500D02*
X5388200D01*
X5346700Y1800000D02*
Y1883000D01*
X5051200Y1841500D02*
X5134200D01*
X5092700Y1800000D02*
Y1883000D01*
X4797200Y1841500D02*
X4880200D01*
X4838700Y1800000D02*
Y1883000D01*
X4543200Y1841500D02*
X4626200D01*
X4584700Y1800000D02*
Y1883000D01*
X4289200Y1841500D02*
X4372200D01*
X4330700Y1800000D02*
Y1883000D01*
X2334900Y3348800D02*
X2414900D01*
X2374900Y3308800D02*
Y3388800D01*
X1591800Y3556000D02*
X1684800D01*
X1638300Y3509500D02*
Y3602500D01*
X1337800Y3556000D02*
X1430800D01*
X1384300Y3509500D02*
Y3602500D01*
X3992100Y3975100D02*
X4085100D01*
X4038600Y3928600D02*
Y4021600D01*
X3738100Y3975100D02*
X3831100D01*
X3784600Y3928600D02*
Y4021600D01*
X6564700Y177800D02*
X6668700D01*
X6616700Y125800D02*
Y229800D01*
X1929200Y254000D02*
X2033200D01*
X1981200Y202000D02*
Y306000D01*
X1624400Y254000D02*
X1728400D01*
X1676400Y202000D02*
Y306000D01*
X1306900Y254000D02*
X1410900D01*
X1358900Y202000D02*
Y306000D01*
X1002100Y254000D02*
X1106100D01*
X1054100Y202000D02*
Y306000D01*
X3707200Y5499100D02*
X3811200D01*
X3759200Y5447100D02*
Y5551100D01*
X4012000Y5499100D02*
X4116000D01*
X4064000Y5447100D02*
Y5551100D01*
X4316800Y5499100D02*
X4420800D01*
X4368800Y5447100D02*
Y5551100D01*
X3693800Y2937601D02*
X3773800D01*
X3733800Y2897602D02*
Y2977601D01*
X3693800Y1837599D02*
X3773800D01*
X3733800Y1797599D02*
Y1877598D01*
X6386200Y1808302D02*
X6466200D01*
X6426200Y1768302D02*
Y1848302D01*
X6386200Y2908300D02*
X6466200D01*
X6426200Y2868300D02*
Y2948300D01*
X2855600Y2075002D02*
X2935600D01*
X2895600Y2035002D02*
Y2115002D01*
X2855600Y3175000D02*
X2935600D01*
X2895600Y3135000D02*
Y3215000D01*
X4578902Y3416300D02*
X4658902D01*
X4618902Y3376300D02*
Y3456300D01*
X5678900Y3416300D02*
X5758900D01*
X5718900Y3376300D02*
Y3456300D01*
X2842900Y5029200D02*
X2922900D01*
X2882900Y4989200D02*
Y5069200D01*
X1742897Y5029200D02*
X1822897D01*
X1782897Y4989200D02*
Y5069200D01*
X4332702Y1397000D02*
X4412701D01*
X4372701Y1357000D02*
Y1437000D01*
X3232699Y1397000D02*
X3312698D01*
X3272699Y1357000D02*
Y1437000D01*
X5723352Y1397000D02*
X5803351D01*
X5763351Y1357000D02*
Y1437000D01*
X4623349Y1397000D02*
X4703348D01*
X4663349Y1357000D02*
Y1437000D01*
X5925099Y1422400D02*
X6005098D01*
X5965099Y1382400D02*
Y1462400D01*
X7025102Y1422400D02*
X7105101D01*
X7065101Y1382400D02*
Y1462400D01*
X3533200Y762000D02*
X3604200D01*
X3568700Y726500D02*
Y797500D01*
X3787200Y762000D02*
X3858200D01*
X3822700Y726500D02*
Y797500D01*
X4041200Y762000D02*
X4112200D01*
X4076700Y726500D02*
Y797500D01*
X5425500Y749300D02*
X5496500D01*
X5461000Y713800D02*
Y784800D01*
X5171500Y749300D02*
X5242500D01*
X5207000Y713800D02*
Y784800D01*
X4917500Y749300D02*
X4988500D01*
X4953000Y713800D02*
Y784800D01*
X6301800Y762000D02*
X6372800D01*
X6337300Y726500D02*
Y797500D01*
X6555800Y762000D02*
X6626800D01*
X6591300Y726500D02*
Y797500D01*
X6809800Y762000D02*
X6880800D01*
X6845300Y726500D02*
Y797500D01*
X5317702Y4165600D02*
X5417701D01*
X5367701Y4115600D02*
Y4215600D01*
X4767700Y4165600D02*
X4867700D01*
X4817700Y4115600D02*
Y4215600D01*
X4767700Y3911600D02*
X4867700D01*
X4817700Y3861600D02*
Y3961600D01*
X5507699Y3793602D02*
X5607698D01*
X5557699Y3743602D02*
Y3843602D01*
X4967701Y3848598D02*
X5217701D01*
X5092701Y3723598D02*
Y3973598D01*
X4967701Y4228602D02*
X5217701D01*
X5092701Y4103602D02*
Y4353602D01*
X5317702Y3911600D02*
X5417701D01*
X5367701Y3861600D02*
Y3961600D01*
X4162000Y4889500D02*
X4262000D01*
X4212000Y4839500D02*
Y4939500D01*
X3611999Y4889500D02*
X3711998D01*
X3661999Y4839500D02*
Y4939500D01*
X3611999Y4635500D02*
X3711998D01*
X3661999Y4585500D02*
Y4685500D01*
X4352002Y4517502D02*
X4452002D01*
X4402002Y4467502D02*
Y4567502D01*
X3811999Y4572498D02*
X4061999D01*
X3936999Y4447498D02*
Y4697498D01*
X3811999Y4952502D02*
X4061999D01*
X3936999Y4827502D02*
Y5077502D01*
X4162000Y4635500D02*
X4262000D01*
X4212000Y4585500D02*
Y4685500D01*
X2622500Y1320800D02*
X2711500D01*
X2667000Y1276300D02*
Y1365300D01*
X2368500Y1320800D02*
X2457500D01*
X2413000Y1276300D02*
Y1365300D01*
X633100Y3336100D02*
X713100D01*
X673100Y3296100D02*
Y3376100D01*
X633100Y2836100D02*
X713100D01*
X673100Y2796100D02*
Y2876100D01*
X184150Y5486400D02*
X501650D01*
X342900Y5327650D02*
Y5645150D01*
X7270750Y5473700D02*
X7588250D01*
X7429500Y5314950D02*
Y5632450D01*
X196850Y342900D02*
X514350D01*
X355600Y184150D02*
Y501650D01*
X7270750Y317500D02*
X7588250D01*
X7429500Y158750D02*
Y476250D01*
X4041140Y1066800D02*
X4112260D01*
X4076700Y1031240D02*
Y1102360D01*
X6809740Y1079500D02*
X6880860D01*
X6845300Y1043940D02*
Y1115060D01*
X5425440Y1066800D02*
X5496560D01*
X5461000Y1031240D02*
Y1102360D01*
X3431540Y5308600D02*
X3502660D01*
X3467100Y5273040D02*
Y5344160D01*
X3634740Y5156200D02*
X3705860D01*
X3670300Y5120640D02*
Y5191760D01*
X7305040Y1854200D02*
X7376160D01*
X7340600Y1818640D02*
Y1889760D01*
X4511040Y3937000D02*
X4582160D01*
X4546600Y3901440D02*
Y3972560D01*
X2148840Y3886200D02*
X2219960D01*
X2184400Y3850640D02*
Y3921760D01*
X891540Y4381500D02*
X962660D01*
X927100Y4345940D02*
Y4417060D01*
X4295140Y4267200D02*
X4366260D01*
X4330700Y4231640D02*
Y4302760D01*
%TF.MD5,9f1946a76f86a0bb7b4ee70387b9cd07*%
M02*
